<?xml version="1.0" encoding="UTF-8"?>
<svg xmlns="http://www.w3.org/2000/svg" xmlns:xlink="http://www.w3.org/1999/xlink" width="200pt" height="200pt" viewBox="0 0 200 200" version="1.1">
<g id="surface1">
<path style="fill:none;stroke-width:1;stroke-linecap:butt;stroke-linejoin:miter;stroke:rgb(0%,0%,0%);stroke-opacity:1;stroke-miterlimit:10;" d="M 85.496094 57.558594 C 85.496094 64.226563 75.496094 64.226563 75.496094 57.558594 C 75.496094 50.890625 85.496094 50.890625 85.496094 57.558594 "/>
<path style="fill:none;stroke-width:1;stroke-linecap:butt;stroke-linejoin:miter;stroke:rgb(0%,0%,0%);stroke-opacity:1;stroke-miterlimit:10;" d="M 81.777344 57.453125 C 81.777344 64.121094 71.777344 64.121094 71.777344 57.453125 C 71.777344 50.785156 81.777344 50.785156 81.777344 57.453125 "/>
<path style="fill:none;stroke-width:1;stroke-linecap:butt;stroke-linejoin:miter;stroke:rgb(0%,0%,0%);stroke-opacity:1;stroke-miterlimit:10;" d="M 74.375 59.0625 C 74.375 65.730469 64.375 65.730469 64.375 59.0625 C 64.375 52.394531 74.375 52.394531 74.375 59.0625 "/>
<path style="fill:none;stroke-width:1;stroke-linecap:butt;stroke-linejoin:miter;stroke:rgb(0%,0%,0%);stroke-opacity:1;stroke-miterlimit:10;" d="M 86.390625 60.3125 C 86.390625 66.976563 76.390625 66.976563 76.390625 60.3125 C 76.390625 53.644531 86.390625 53.644531 86.390625 60.3125 "/>
<path style="fill:none;stroke-width:1;stroke-linecap:butt;stroke-linejoin:miter;stroke:rgb(0%,0%,0%);stroke-opacity:1;stroke-miterlimit:10;" d="M 85.007813 55.019531 C 85.007813 61.6875 75.007813 61.6875 75.007813 55.019531 C 75.007813 48.355469 85.007813 48.355469 85.007813 55.019531 "/>
<path style="fill:none;stroke-width:1;stroke-linecap:butt;stroke-linejoin:miter;stroke:rgb(0%,0%,0%);stroke-opacity:1;stroke-miterlimit:10;" d="M 82.765625 60.875 C 82.765625 67.542969 72.765625 67.542969 72.765625 60.875 C 72.765625 54.210938 82.765625 54.210938 82.765625 60.875 "/>
<path style="fill:none;stroke-width:1;stroke-linecap:butt;stroke-linejoin:miter;stroke:rgb(0%,0%,0%);stroke-opacity:1;stroke-miterlimit:10;" d="M 82.523438 66.476563 C 82.523438 73.144531 72.523438 73.144531 72.523438 66.476563 C 72.523438 59.8125 82.523438 59.8125 82.523438 66.476563 "/>
<path style="fill:none;stroke-width:1;stroke-linecap:butt;stroke-linejoin:miter;stroke:rgb(0%,0%,0%);stroke-opacity:1;stroke-miterlimit:10;" d="M 86.574219 71.132813 C 86.574219 77.796875 76.574219 77.796875 76.574219 71.132813 C 76.574219 64.464844 86.574219 64.464844 86.574219 71.132813 "/>
<path style="fill:none;stroke-width:1;stroke-linecap:butt;stroke-linejoin:miter;stroke:rgb(0%,0%,0%);stroke-opacity:1;stroke-miterlimit:10;" d="M 83.886719 64.371094 C 83.886719 71.039063 73.886719 71.039063 73.886719 64.371094 C 73.886719 57.703125 83.886719 57.703125 83.886719 64.371094 "/>
<path style="fill:none;stroke-width:1;stroke-linecap:butt;stroke-linejoin:miter;stroke:rgb(0%,0%,0%);stroke-opacity:1;stroke-miterlimit:10;" d="M 90.0625 64.753906 C 90.0625 71.421875 80.0625 71.421875 80.0625 64.753906 C 80.0625 58.089844 90.0625 58.089844 90.0625 64.753906 "/>
<path style="fill:none;stroke-width:1;stroke-linecap:butt;stroke-linejoin:miter;stroke:rgb(0%,0%,0%);stroke-opacity:1;stroke-miterlimit:10;" d="M 91.269531 66.789063 C 91.269531 73.457031 81.269531 73.457031 81.269531 66.789063 C 81.269531 60.121094 91.269531 60.121094 91.269531 66.789063 "/>
<path style="fill:none;stroke-width:1;stroke-linecap:butt;stroke-linejoin:miter;stroke:rgb(0%,0%,0%);stroke-opacity:1;stroke-miterlimit:10;" d="M 87.296875 65.867188 C 87.296875 72.53125 77.296875 72.53125 77.296875 65.867188 C 77.296875 59.199219 87.296875 59.199219 87.296875 65.867188 "/>
<path style="fill:none;stroke-width:1;stroke-linecap:butt;stroke-linejoin:miter;stroke:rgb(0%,0%,0%);stroke-opacity:1;stroke-miterlimit:10;" d="M 81.78125 70.128906 C 81.78125 76.796875 71.78125 76.796875 71.78125 70.128906 C 71.78125 63.464844 81.78125 63.464844 81.78125 70.128906 "/>
<path style="fill:none;stroke-width:1;stroke-linecap:butt;stroke-linejoin:miter;stroke:rgb(0%,0%,0%);stroke-opacity:1;stroke-miterlimit:10;" d="M 95.53125 58.574219 C 95.53125 65.242188 85.53125 65.242188 85.53125 58.574219 C 85.53125 51.90625 95.53125 51.90625 95.53125 58.574219 "/>
<path style="fill:none;stroke-width:1;stroke-linecap:butt;stroke-linejoin:miter;stroke:rgb(0%,0%,0%);stroke-opacity:1;stroke-miterlimit:10;" d="M 87.296875 65.867188 C 87.296875 72.53125 77.296875 72.53125 77.296875 65.867188 C 77.296875 59.199219 87.296875 59.199219 87.296875 65.867188 "/>
<path style="fill:none;stroke-width:1;stroke-linecap:butt;stroke-linejoin:miter;stroke:rgb(0%,0%,0%);stroke-opacity:1;stroke-miterlimit:10;" d="M 83.882813 71.070313 C 83.882813 77.738281 73.882813 77.738281 73.882813 71.070313 C 73.882813 64.402344 83.882813 64.402344 83.882813 71.070313 "/>
<path style="fill:none;stroke-width:1;stroke-linecap:butt;stroke-linejoin:miter;stroke:rgb(0%,0%,0%);stroke-opacity:1;stroke-miterlimit:10;" d="M 82.769531 60.871094 C 82.769531 67.535156 72.769531 67.535156 72.769531 60.871094 C 72.769531 54.203125 82.769531 54.203125 82.769531 60.871094 "/>
<path style="fill:none;stroke-width:1;stroke-linecap:butt;stroke-linejoin:miter;stroke:rgb(0%,0%,0%);stroke-opacity:1;stroke-miterlimit:10;" d="M 83.515625 57.96875 C 83.515625 64.636719 73.515625 64.636719 73.515625 57.96875 C 73.515625 51.300781 83.515625 51.300781 83.515625 57.96875 "/>
<path style="fill:none;stroke-width:1;stroke-linecap:butt;stroke-linejoin:miter;stroke:rgb(0%,0%,0%);stroke-opacity:1;stroke-miterlimit:10;" d="M 88.113281 71.320313 C 88.113281 77.988281 78.113281 77.988281 78.113281 71.320313 C 78.113281 64.65625 88.113281 64.65625 88.113281 71.320313 "/>
<path style="fill:none;stroke-width:1;stroke-linecap:butt;stroke-linejoin:miter;stroke:rgb(0%,0%,0%);stroke-opacity:1;stroke-miterlimit:10;" d="M 88.976563 70.484375 C 88.976563 77.152344 78.976563 77.152344 78.976563 70.484375 C 78.976563 63.816406 88.976563 63.816406 88.976563 70.484375 "/>
<path style="fill:none;stroke-width:1;stroke-linecap:butt;stroke-linejoin:miter;stroke:rgb(0%,0%,0%);stroke-opacity:1;stroke-miterlimit:10;" d="M 117.273438 57.660156 C 117.273438 64.328125 107.273438 64.328125 107.273438 57.660156 C 107.273438 50.996094 117.273438 50.996094 117.273438 57.660156 "/>
<path style="fill:none;stroke-width:1;stroke-linecap:butt;stroke-linejoin:miter;stroke:rgb(0%,0%,0%);stroke-opacity:1;stroke-miterlimit:10;" d="M 121.445313 59.601563 C 121.445313 66.265625 111.445313 66.265625 111.445313 59.601563 C 111.445313 52.933594 121.445313 52.933594 121.445313 59.601563 "/>
<path style="fill:none;stroke-width:1;stroke-linecap:butt;stroke-linejoin:miter;stroke:rgb(0%,0%,0%);stroke-opacity:1;stroke-miterlimit:10;" d="M 115.585938 59.433594 C 115.585938 66.101563 105.585938 66.101563 105.585938 59.433594 C 105.585938 52.769531 115.585938 52.769531 115.585938 59.433594 "/>
<path style="fill:none;stroke-width:1;stroke-linecap:butt;stroke-linejoin:miter;stroke:rgb(0%,0%,0%);stroke-opacity:1;stroke-miterlimit:10;" d="M 105.292969 66.433594 C 105.292969 73.097656 95.292969 73.097656 95.292969 66.433594 C 95.292969 59.765625 105.292969 59.765625 105.292969 66.433594 "/>
<path style="fill:none;stroke-width:1;stroke-linecap:butt;stroke-linejoin:miter;stroke:rgb(0%,0%,0%);stroke-opacity:1;stroke-miterlimit:10;" d="M 114.929688 62.296875 C 114.929688 68.960938 104.929688 68.960938 104.929688 62.296875 C 104.929688 55.628906 114.929688 55.628906 114.929688 62.296875 "/>
<path style="fill:none;stroke-width:1;stroke-linecap:butt;stroke-linejoin:miter;stroke:rgb(0%,0%,0%);stroke-opacity:1;stroke-miterlimit:10;" d="M 109 66.15625 C 109 72.824219 99 72.824219 99 66.15625 C 99 59.492188 109 59.492188 109 66.15625 "/>
<path style="fill:none;stroke-width:1;stroke-linecap:butt;stroke-linejoin:miter;stroke:rgb(0%,0%,0%);stroke-opacity:1;stroke-miterlimit:10;" d="M 115.605469 59.675781 C 115.605469 66.34375 105.605469 66.34375 105.605469 59.675781 C 105.605469 53.007813 115.605469 53.007813 115.605469 59.675781 "/>
<path style="fill:none;stroke-width:1;stroke-linecap:butt;stroke-linejoin:miter;stroke:rgb(0%,0%,0%);stroke-opacity:1;stroke-miterlimit:10;" d="M 106.480469 66.179688 C 106.480469 72.847656 96.480469 72.847656 96.480469 66.179688 C 96.480469 59.511719 106.480469 59.511719 106.480469 66.179688 "/>
<path style="fill:none;stroke-width:1;stroke-linecap:butt;stroke-linejoin:miter;stroke:rgb(0%,0%,0%);stroke-opacity:1;stroke-miterlimit:10;" d="M 115.605469 59.675781 C 115.605469 66.34375 105.605469 66.34375 105.605469 59.675781 C 105.605469 53.007813 115.605469 53.007813 115.605469 59.675781 "/>
<path style="fill:none;stroke-width:1;stroke-linecap:butt;stroke-linejoin:miter;stroke:rgb(0%,0%,0%);stroke-opacity:1;stroke-miterlimit:10;" d="M 115.605469 59.675781 C 115.605469 66.34375 105.605469 66.34375 105.605469 59.675781 C 105.605469 53.007813 115.605469 53.007813 115.605469 59.675781 "/>
<path style="fill:none;stroke-width:1;stroke-linecap:butt;stroke-linejoin:miter;stroke:rgb(0%,0%,0%);stroke-opacity:1;stroke-miterlimit:10;" d="M 115.605469 59.675781 C 115.605469 66.34375 105.605469 66.34375 105.605469 59.675781 C 105.605469 53.007813 115.605469 53.007813 115.605469 59.675781 "/>
<path style="fill:none;stroke-width:1;stroke-linecap:butt;stroke-linejoin:miter;stroke:rgb(0%,0%,0%);stroke-opacity:1;stroke-miterlimit:10;" d="M 115.4375 59.726563 C 115.4375 66.390625 105.4375 66.390625 105.4375 59.726563 C 105.4375 53.058594 115.4375 53.058594 115.4375 59.726563 "/>
<path style="fill:none;stroke-width:1;stroke-linecap:butt;stroke-linejoin:miter;stroke:rgb(0%,0%,0%);stroke-opacity:1;stroke-miterlimit:10;" d="M 121.445313 59.601563 C 121.445313 66.265625 111.445313 66.265625 111.445313 59.601563 C 111.445313 52.933594 121.445313 52.933594 121.445313 59.601563 "/>
<path style="fill:none;stroke-width:1;stroke-linecap:butt;stroke-linejoin:miter;stroke:rgb(0%,0%,0%);stroke-opacity:1;stroke-miterlimit:10;" d="M 115.605469 59.675781 C 115.605469 66.34375 105.605469 66.34375 105.605469 59.675781 C 105.605469 53.007813 115.605469 53.007813 115.605469 59.675781 "/>
<path style="fill:none;stroke-width:1;stroke-linecap:butt;stroke-linejoin:miter;stroke:rgb(0%,0%,0%);stroke-opacity:1;stroke-miterlimit:10;" d="M 124.019531 53.800781 C 124.019531 60.46875 114.019531 60.46875 114.019531 53.800781 C 114.019531 47.136719 124.019531 47.136719 124.019531 53.800781 "/>
<path style="fill:none;stroke-width:1;stroke-linecap:butt;stroke-linejoin:miter;stroke:rgb(0%,0%,0%);stroke-opacity:1;stroke-miterlimit:10;" d="M 136.453125 63.855469 C 136.453125 70.523438 126.453125 70.523438 126.453125 63.855469 C 126.453125 57.191406 136.453125 57.191406 136.453125 63.855469 "/>
<path style="fill:none;stroke-width:1;stroke-linecap:butt;stroke-linejoin:miter;stroke:rgb(0%,0%,0%);stroke-opacity:1;stroke-miterlimit:10;" d="M 129.589844 54.777344 C 129.589844 61.445313 119.589844 61.445313 119.589844 54.777344 C 119.589844 48.109375 129.589844 48.109375 129.589844 54.777344 "/>
<path style="fill:none;stroke-width:1;stroke-linecap:butt;stroke-linejoin:miter;stroke:rgb(0%,0%,0%);stroke-opacity:1;stroke-miterlimit:10;" d="M 127.503906 59.101563 C 127.503906 65.769531 117.503906 65.769531 117.503906 59.101563 C 117.503906 52.433594 127.503906 52.433594 127.503906 59.101563 "/>
<path style="fill:none;stroke-width:1;stroke-linecap:butt;stroke-linejoin:miter;stroke:rgb(0%,0%,0%);stroke-opacity:1;stroke-miterlimit:10;" d="M 138.226563 68.980469 C 138.226563 75.644531 128.226563 75.644531 128.226563 68.980469 C 128.226563 62.3125 138.226563 62.3125 138.226563 68.980469 "/>
<path style="fill:none;stroke-width:1;stroke-linecap:butt;stroke-linejoin:miter;stroke:rgb(0%,0%,0%);stroke-opacity:1;stroke-miterlimit:10;" d="M 135.953125 58.816406 C 135.953125 65.484375 125.953125 65.484375 125.953125 58.816406 C 125.953125 52.148438 135.953125 52.148438 135.953125 58.816406 "/>
<path style="fill:none;stroke-width:1;stroke-linecap:butt;stroke-linejoin:miter;stroke:rgb(0%,0%,0%);stroke-opacity:1;stroke-miterlimit:10;" d="M 130.628906 41.84375 C 130.628906 48.511719 120.628906 48.511719 120.628906 41.84375 C 120.628906 35.179688 130.628906 35.179688 130.628906 41.84375 "/>
<path style="fill:none;stroke-width:1;stroke-linecap:butt;stroke-linejoin:miter;stroke:rgb(0%,0%,0%);stroke-opacity:1;stroke-miterlimit:10;" d="M 132.265625 42.792969 C 132.265625 49.460938 122.265625 49.460938 122.265625 42.792969 C 122.265625 36.125 132.265625 36.125 132.265625 42.792969 "/>
<path style="fill:none;stroke-width:1;stroke-linecap:butt;stroke-linejoin:miter;stroke:rgb(0%,0%,0%);stroke-opacity:1;stroke-miterlimit:10;" d="M 136.722656 69.621094 C 136.722656 76.285156 126.722656 76.285156 126.722656 69.621094 C 126.722656 62.953125 136.722656 62.953125 136.722656 69.621094 "/>
<path style="fill:none;stroke-width:1;stroke-linecap:butt;stroke-linejoin:miter;stroke:rgb(0%,0%,0%);stroke-opacity:1;stroke-miterlimit:10;" d="M 136.722656 69.621094 C 136.722656 76.285156 126.722656 76.285156 126.722656 69.621094 C 126.722656 62.953125 136.722656 62.953125 136.722656 69.621094 "/>
<path style="fill:none;stroke-width:1;stroke-linecap:butt;stroke-linejoin:miter;stroke:rgb(0%,0%,0%);stroke-opacity:1;stroke-miterlimit:10;" d="M 155.96875 51.273438 C 155.96875 57.941406 145.96875 57.941406 145.96875 51.273438 C 145.96875 44.605469 155.96875 44.605469 155.96875 51.273438 "/>
<path style="fill:none;stroke-width:1;stroke-linecap:butt;stroke-linejoin:miter;stroke:rgb(0%,0%,0%);stroke-opacity:1;stroke-miterlimit:10;" d="M 153.242188 67.800781 C 153.242188 74.46875 143.242188 74.46875 143.242188 67.800781 C 143.242188 61.132813 153.242188 61.132813 153.242188 67.800781 "/>
<path style="fill:none;stroke-width:1;stroke-linecap:butt;stroke-linejoin:miter;stroke:rgb(0%,0%,0%);stroke-opacity:1;stroke-miterlimit:10;" d="M 140.339844 54.550781 C 140.339844 61.21875 130.339844 61.21875 130.339844 54.550781 C 130.339844 47.886719 140.339844 47.886719 140.339844 54.550781 "/>
<path style="fill:none;stroke-width:1;stroke-linecap:butt;stroke-linejoin:miter;stroke:rgb(0%,0%,0%);stroke-opacity:1;stroke-miterlimit:10;" d="M 144.933594 49.558594 C 144.933594 56.226563 134.933594 56.226563 134.933594 49.558594 C 134.933594 42.894531 144.933594 42.894531 144.933594 49.558594 "/>
<path style="fill:none;stroke-width:1;stroke-linecap:butt;stroke-linejoin:miter;stroke:rgb(0%,0%,0%);stroke-opacity:1;stroke-miterlimit:10;" d="M 142.402344 49.328125 C 142.402344 55.992188 132.402344 55.992188 132.402344 49.328125 C 132.402344 42.660156 142.402344 42.660156 142.402344 49.328125 "/>
<path style="fill:none;stroke-width:1;stroke-linecap:butt;stroke-linejoin:miter;stroke:rgb(0%,0%,0%);stroke-opacity:1;stroke-miterlimit:10;" d="M 152.144531 56.441406 C 152.144531 63.109375 142.144531 63.109375 142.144531 56.441406 C 142.144531 49.777344 152.144531 49.777344 152.144531 56.441406 "/>
<path style="fill:none;stroke-width:1;stroke-linecap:butt;stroke-linejoin:miter;stroke:rgb(0%,0%,0%);stroke-opacity:1;stroke-miterlimit:10;" d="M 144.621094 60.9375 C 144.621094 67.605469 134.621094 67.605469 134.621094 60.9375 C 134.621094 54.269531 144.621094 54.269531 144.621094 60.9375 "/>
<path style="fill:none;stroke-width:1;stroke-linecap:butt;stroke-linejoin:miter;stroke:rgb(0%,0%,0%);stroke-opacity:1;stroke-miterlimit:10;" d="M 144.621094 60.9375 C 144.621094 67.605469 134.621094 67.605469 134.621094 60.9375 C 134.621094 54.269531 144.621094 54.269531 144.621094 60.9375 "/>
<path style="fill:none;stroke-width:1;stroke-linecap:butt;stroke-linejoin:miter;stroke:rgb(0%,0%,0%);stroke-opacity:1;stroke-miterlimit:10;" d="M 109.265625 57.8125 C 109.265625 64.480469 99.265625 64.480469 99.265625 57.8125 C 99.265625 51.148438 109.265625 51.148438 109.265625 57.8125 "/>
<path style="fill:none;stroke-width:1;stroke-linecap:butt;stroke-linejoin:miter;stroke:rgb(0%,0%,0%);stroke-opacity:1;stroke-miterlimit:10;" d="M 107.863281 51.386719 C 107.863281 58.054688 97.863281 58.054688 97.863281 51.386719 C 97.863281 44.722656 107.863281 44.722656 107.863281 51.386719 "/>
<path style="fill:none;stroke-width:1;stroke-linecap:butt;stroke-linejoin:miter;stroke:rgb(0%,0%,0%);stroke-opacity:1;stroke-miterlimit:10;" d="M 97.871094 48.570313 C 97.871094 55.238281 87.871094 55.238281 87.871094 48.570313 C 87.871094 41.902344 97.871094 41.902344 97.871094 48.570313 "/>
<path style="fill:none;stroke-width:1;stroke-linecap:butt;stroke-linejoin:miter;stroke:rgb(0%,0%,0%);stroke-opacity:1;stroke-miterlimit:10;" d="M 107.964844 59.3125 C 107.964844 65.980469 97.964844 65.980469 97.964844 59.3125 C 97.964844 52.644531 107.964844 52.644531 107.964844 59.3125 "/>
<path style="fill:none;stroke-width:1;stroke-linecap:butt;stroke-linejoin:miter;stroke:rgb(0%,0%,0%);stroke-opacity:1;stroke-miterlimit:10;" d="M 96.789063 48.535156 C 96.789063 55.203125 86.789063 55.203125 86.789063 48.535156 C 86.789063 41.871094 96.789063 41.871094 96.789063 48.535156 "/>
<path style="fill:none;stroke-width:1;stroke-linecap:butt;stroke-linejoin:miter;stroke:rgb(0%,0%,0%);stroke-opacity:1;stroke-miterlimit:10;" d="M 93.320313 54.90625 C 93.320313 61.574219 83.320313 61.574219 83.320313 54.90625 C 83.320313 48.238281 93.320313 48.238281 93.320313 54.90625 "/>
<path style="fill:none;stroke-width:1;stroke-linecap:butt;stroke-linejoin:miter;stroke:rgb(0%,0%,0%);stroke-opacity:1;stroke-miterlimit:10;" d="M 97.871094 48.570313 C 97.871094 55.238281 87.871094 55.238281 87.871094 48.570313 C 87.871094 41.902344 97.871094 41.902344 97.871094 48.570313 "/>
<path style="fill:none;stroke-width:1;stroke-linecap:butt;stroke-linejoin:miter;stroke:rgb(0%,0%,0%);stroke-opacity:1;stroke-miterlimit:10;" d="M 91.898438 56.339844 C 91.898438 63.003906 81.898438 63.003906 81.898438 56.339844 C 81.898438 49.671875 91.898438 49.671875 91.898438 56.339844 "/>
<path style="fill:none;stroke-width:1;stroke-linecap:butt;stroke-linejoin:miter;stroke:rgb(0%,0%,0%);stroke-opacity:1;stroke-miterlimit:10;" d="M 107.988281 55.636719 C 107.988281 62.304688 97.988281 62.304688 97.988281 55.636719 C 97.988281 48.972656 107.988281 48.972656 107.988281 55.636719 "/>
<path style="fill:none;stroke-width:1;stroke-linecap:butt;stroke-linejoin:miter;stroke:rgb(0%,0%,0%);stroke-opacity:1;stroke-miterlimit:10;" d="M 101.796875 59.949219 C 101.796875 66.617188 91.796875 66.617188 91.796875 59.949219 C 91.796875 53.285156 101.796875 53.285156 101.796875 59.949219 "/>
<path style="fill:none;stroke-width:1;stroke-linecap:butt;stroke-linejoin:miter;stroke:rgb(0%,0%,0%);stroke-opacity:1;stroke-miterlimit:10;" d="M 107.988281 55.636719 C 107.988281 62.304688 97.988281 62.304688 97.988281 55.636719 C 97.988281 48.972656 107.988281 48.972656 107.988281 55.636719 "/>
<path style="fill:none;stroke-width:1;stroke-linecap:butt;stroke-linejoin:miter;stroke:rgb(0%,0%,0%);stroke-opacity:1;stroke-miterlimit:10;" d="M 94.3125 57.648438 C 94.3125 64.316406 84.3125 64.316406 84.3125 57.648438 C 84.3125 50.980469 94.3125 50.980469 94.3125 57.648438 "/>
<path style="fill:none;stroke-width:1;stroke-linecap:butt;stroke-linejoin:miter;stroke:rgb(0%,0%,0%);stroke-opacity:1;stroke-miterlimit:10;" d="M 104.40625 52.914063 C 104.40625 59.582031 94.40625 59.582031 94.40625 52.914063 C 94.40625 46.246094 104.40625 46.246094 104.40625 52.914063 "/>
<path style="fill:none;stroke-width:1;stroke-linecap:butt;stroke-linejoin:miter;stroke:rgb(0%,0%,0%);stroke-opacity:1;stroke-miterlimit:10;" d="M 88.40625 54.316406 C 88.40625 60.984375 78.40625 60.984375 78.40625 54.316406 C 78.40625 47.648438 88.40625 47.648438 88.40625 54.316406 "/>
<path style="fill:none;stroke-width:1;stroke-linecap:butt;stroke-linejoin:miter;stroke:rgb(0%,0%,0%);stroke-opacity:1;stroke-miterlimit:10;" d="M 107.863281 51.386719 C 107.863281 58.054688 97.863281 58.054688 97.863281 51.386719 C 97.863281 44.722656 107.863281 44.722656 107.863281 51.386719 "/>
<path style="fill:none;stroke-width:1;stroke-linecap:butt;stroke-linejoin:miter;stroke:rgb(0%,0%,0%);stroke-opacity:1;stroke-miterlimit:10;" d="M 107.15625 57.628906 C 107.15625 64.292969 97.15625 64.292969 97.15625 57.628906 C 97.15625 50.960938 107.15625 50.960938 107.15625 57.628906 "/>
<path style="fill:none;stroke-width:1;stroke-linecap:butt;stroke-linejoin:miter;stroke:rgb(0%,0%,0%);stroke-opacity:1;stroke-miterlimit:10;" d="M 97.871094 48.570313 C 97.871094 55.238281 87.871094 55.238281 87.871094 48.570313 C 87.871094 41.902344 97.871094 41.902344 97.871094 48.570313 "/>
<path style="fill:none;stroke-width:1;stroke-linecap:butt;stroke-linejoin:miter;stroke:rgb(0%,0%,0%);stroke-opacity:1;stroke-miterlimit:10;" d="M 108.246094 50.488281 C 108.246094 57.152344 98.246094 57.152344 98.246094 50.488281 C 98.246094 43.820313 108.246094 43.820313 108.246094 50.488281 "/>
<path style="fill:none;stroke-width:1;stroke-linecap:butt;stroke-linejoin:miter;stroke:rgb(0%,0%,0%);stroke-opacity:1;stroke-miterlimit:10;" d="M 106.734375 57.351563 C 106.734375 64.015625 96.734375 64.015625 96.734375 57.351563 C 96.734375 50.683594 106.734375 50.683594 106.734375 57.351563 "/>
<path style="fill:none;stroke-width:1;stroke-linecap:butt;stroke-linejoin:miter;stroke:rgb(0%,0%,0%);stroke-opacity:1;stroke-miterlimit:10;" d="M 98.988281 44.394531 C 98.988281 51.058594 88.988281 51.058594 88.988281 44.394531 C 88.988281 37.726563 98.988281 37.726563 98.988281 44.394531 "/>
<path style="fill:none;stroke-width:1;stroke-linecap:butt;stroke-linejoin:miter;stroke:rgb(0%,0%,0%);stroke-opacity:1;stroke-miterlimit:10;" d="M 116.25 73.238281 C 116.25 79.90625 106.25 79.90625 106.25 73.238281 C 106.25 66.574219 116.25 66.574219 116.25 73.238281 "/>
<path style="fill:none;stroke-width:1;stroke-linecap:butt;stroke-linejoin:miter;stroke:rgb(0%,0%,0%);stroke-opacity:1;stroke-miterlimit:10;" d="M 117.34375 70.945313 C 117.34375 77.613281 107.34375 77.613281 107.34375 70.945313 C 107.34375 64.28125 117.34375 64.28125 117.34375 70.945313 "/>
<path style="fill:none;stroke-width:1;stroke-linecap:butt;stroke-linejoin:miter;stroke:rgb(0%,0%,0%);stroke-opacity:1;stroke-miterlimit:10;" d="M 129.902344 87.308594 C 129.902344 93.976563 119.902344 93.976563 119.902344 87.308594 C 119.902344 80.644531 129.902344 80.644531 129.902344 87.308594 "/>
<path style="fill:none;stroke-width:1;stroke-linecap:butt;stroke-linejoin:miter;stroke:rgb(0%,0%,0%);stroke-opacity:1;stroke-miterlimit:10;" d="M 117.351563 82.101563 C 117.351563 88.769531 107.351563 88.769531 107.351563 82.101563 C 107.351563 75.4375 117.351563 75.4375 117.351563 82.101563 "/>
<path style="fill:none;stroke-width:1;stroke-linecap:butt;stroke-linejoin:miter;stroke:rgb(0%,0%,0%);stroke-opacity:1;stroke-miterlimit:10;" d="M 113.316406 66.890625 C 113.316406 73.558594 103.316406 73.558594 103.316406 66.890625 C 103.316406 60.226563 113.316406 60.226563 113.316406 66.890625 "/>
<path style="fill:none;stroke-width:1;stroke-linecap:butt;stroke-linejoin:miter;stroke:rgb(0%,0%,0%);stroke-opacity:1;stroke-miterlimit:10;" d="M 114.589844 65.160156 C 114.589844 71.824219 104.589844 71.824219 104.589844 65.160156 C 104.589844 58.492188 114.589844 58.492188 114.589844 65.160156 "/>
<path style="fill:none;stroke-width:1;stroke-linecap:butt;stroke-linejoin:miter;stroke:rgb(0%,0%,0%);stroke-opacity:1;stroke-miterlimit:10;" d="M 119.527344 79.617188 C 119.527344 86.285156 109.527344 86.285156 109.527344 79.617188 C 109.527344 72.953125 119.527344 72.953125 119.527344 79.617188 "/>
<path style="fill:none;stroke-width:1;stroke-linecap:butt;stroke-linejoin:miter;stroke:rgb(0%,0%,0%);stroke-opacity:1;stroke-miterlimit:10;" d="M 124.972656 86.492188 C 124.972656 93.160156 114.972656 93.160156 114.972656 86.492188 C 114.972656 79.828125 124.972656 79.828125 124.972656 86.492188 "/>
<path style="fill:none;stroke-width:1;stroke-linecap:butt;stroke-linejoin:miter;stroke:rgb(0%,0%,0%);stroke-opacity:1;stroke-miterlimit:10;" d="M 112.5 69.878906 C 112.5 76.546875 102.5 76.546875 102.5 69.878906 C 102.5 63.214844 112.5 63.214844 112.5 69.878906 "/>
<path style="fill:none;stroke-width:1;stroke-linecap:butt;stroke-linejoin:miter;stroke:rgb(0%,0%,0%);stroke-opacity:1;stroke-miterlimit:10;" d="M 114.589844 65.160156 C 114.589844 71.824219 104.589844 71.824219 104.589844 65.160156 C 104.589844 58.492188 114.589844 58.492188 114.589844 65.160156 "/>
<path style="fill:none;stroke-width:1;stroke-linecap:butt;stroke-linejoin:miter;stroke:rgb(0%,0%,0%);stroke-opacity:1;stroke-miterlimit:10;" d="M 117.019531 49.601563 C 117.019531 56.269531 107.019531 56.269531 107.019531 49.601563 C 107.019531 42.9375 117.019531 42.9375 117.019531 49.601563 "/>
<path style="fill:none;stroke-width:1;stroke-linecap:butt;stroke-linejoin:miter;stroke:rgb(0%,0%,0%);stroke-opacity:1;stroke-miterlimit:10;" d="M 111.503906 51.625 C 111.503906 58.289063 101.503906 58.289063 101.503906 51.625 C 101.503906 44.957031 111.503906 44.957031 111.503906 51.625 "/>
<path style="fill:none;stroke-width:1;stroke-linecap:butt;stroke-linejoin:miter;stroke:rgb(0%,0%,0%);stroke-opacity:1;stroke-miterlimit:10;" d="M 109.355469 41.308594 C 109.355469 47.976563 99.355469 47.976563 99.355469 41.308594 C 99.355469 34.644531 109.355469 34.644531 109.355469 41.308594 "/>
<path style="fill:none;stroke-width:1;stroke-linecap:butt;stroke-linejoin:miter;stroke:rgb(0%,0%,0%);stroke-opacity:1;stroke-miterlimit:10;" d="M 112.15625 30.019531 C 112.15625 36.6875 102.15625 36.6875 102.15625 30.019531 C 102.15625 23.355469 112.15625 23.355469 112.15625 30.019531 "/>
<path style="fill:none;stroke-width:1;stroke-linecap:butt;stroke-linejoin:miter;stroke:rgb(0%,0%,0%);stroke-opacity:1;stroke-miterlimit:10;" d="M 98.988281 35.992188 C 98.988281 42.660156 88.988281 42.660156 88.988281 35.992188 C 88.988281 29.328125 98.988281 29.328125 98.988281 35.992188 "/>
<path style="fill:none;stroke-width:1;stroke-linecap:butt;stroke-linejoin:miter;stroke:rgb(0%,0%,0%);stroke-opacity:1;stroke-miterlimit:10;" d="M 109.941406 46.9375 C 109.941406 53.601563 99.941406 53.601563 99.941406 46.9375 C 99.941406 40.269531 109.941406 40.269531 109.941406 46.9375 "/>
<path style="fill:none;stroke-width:1;stroke-linecap:butt;stroke-linejoin:miter;stroke:rgb(0%,0%,0%);stroke-opacity:1;stroke-miterlimit:10;" d="M 115.761719 52.890625 C 115.761719 59.554688 105.761719 59.554688 105.761719 52.890625 C 105.761719 46.222656 115.761719 46.222656 115.761719 52.890625 "/>
<path style="fill:none;stroke-width:1;stroke-linecap:butt;stroke-linejoin:miter;stroke:rgb(0%,0%,0%);stroke-opacity:1;stroke-miterlimit:10;" d="M 111.878906 49.703125 C 111.878906 56.371094 101.878906 56.371094 101.878906 49.703125 C 101.878906 43.035156 111.878906 43.035156 111.878906 49.703125 "/>
<path style="fill:none;stroke-width:1;stroke-linecap:butt;stroke-linejoin:miter;stroke:rgb(0%,0%,0%);stroke-opacity:1;stroke-miterlimit:10;" d="M 127.957031 26.609375 C 127.957031 33.277344 117.957031 33.277344 117.957031 26.609375 C 117.957031 19.941406 127.957031 19.941406 127.957031 26.609375 "/>
<path style="fill:none;stroke-width:1;stroke-linecap:butt;stroke-linejoin:miter;stroke:rgb(0%,0%,0%);stroke-opacity:1;stroke-miterlimit:10;" d="M 119.4375 48 C 119.4375 54.664063 109.4375 54.664063 109.4375 48 C 109.4375 41.332031 119.4375 41.332031 119.4375 48 "/>
<path style="fill:none;stroke-width:1;stroke-linecap:butt;stroke-linejoin:miter;stroke:rgb(0%,0%,0%);stroke-opacity:1;stroke-miterlimit:10;" d="M 114.632813 46.855469 C 114.632813 53.523438 104.632813 53.523438 104.632813 46.855469 C 104.632813 40.1875 114.632813 40.1875 114.632813 46.855469 "/>
<path style="fill:none;stroke-width:1;stroke-linecap:butt;stroke-linejoin:miter;stroke:rgb(0%,0%,0%);stroke-opacity:1;stroke-miterlimit:10;" d="M 111.457031 51.726563 C 111.457031 58.394531 101.457031 58.394531 101.457031 51.726563 C 101.457031 45.058594 111.457031 45.058594 111.457031 51.726563 "/>
<path style="fill:none;stroke-width:1;stroke-linecap:butt;stroke-linejoin:miter;stroke:rgb(0%,0%,0%);stroke-opacity:1;stroke-miterlimit:10;" d="M 84.511719 24.003906 C 84.511719 30.671875 74.511719 30.671875 74.511719 24.003906 C 74.511719 17.335938 84.511719 17.335938 84.511719 24.003906 "/>
<path style="fill:none;stroke-width:1;stroke-linecap:butt;stroke-linejoin:miter;stroke:rgb(0%,0%,0%);stroke-opacity:1;stroke-miterlimit:10;" d="M 96.726563 33.214844 C 96.726563 39.882813 86.726563 39.882813 86.726563 33.214844 C 86.726563 26.546875 96.726563 26.546875 96.726563 33.214844 "/>
<path style="fill:none;stroke-width:1;stroke-linecap:butt;stroke-linejoin:miter;stroke:rgb(0%,0%,0%);stroke-opacity:1;stroke-miterlimit:10;" d="M 71.191406 50.492188 C 71.191406 57.15625 61.191406 57.15625 61.191406 50.492188 C 61.191406 43.824219 71.191406 43.824219 71.191406 50.492188 "/>
<path style="fill:none;stroke-width:1;stroke-linecap:butt;stroke-linejoin:miter;stroke:rgb(0%,0%,0%);stroke-opacity:1;stroke-miterlimit:10;" d="M 43.902344 71.316406 C 43.902344 77.984375 33.902344 77.984375 33.902344 71.316406 C 33.902344 64.652344 43.902344 64.652344 43.902344 71.316406 "/>
<path style="fill:none;stroke-width:1;stroke-linecap:butt;stroke-linejoin:miter;stroke:rgb(0%,0%,0%);stroke-opacity:1;stroke-miterlimit:10;" d="M 61.386719 51.550781 C 61.386719 58.21875 51.386719 58.21875 51.386719 51.550781 C 51.386719 44.882813 61.386719 44.882813 61.386719 51.550781 "/>
<path style="fill:none;stroke-width:1;stroke-linecap:butt;stroke-linejoin:miter;stroke:rgb(0%,0%,0%);stroke-opacity:1;stroke-miterlimit:10;" d="M 102.625 79.683594 C 102.625 86.351563 92.625 86.351563 92.625 79.683594 C 92.625 73.019531 102.625 73.019531 102.625 79.683594 "/>
<path style="fill:none;stroke-width:1;stroke-linecap:butt;stroke-linejoin:miter;stroke:rgb(0%,0%,0%);stroke-opacity:1;stroke-miterlimit:10;" d="M 62.074219 43.828125 C 62.074219 50.496094 52.074219 50.496094 52.074219 43.828125 C 52.074219 37.164063 62.074219 37.164063 62.074219 43.828125 "/>
<path style="fill:none;stroke-width:1;stroke-linecap:butt;stroke-linejoin:miter;stroke:rgb(0%,0%,0%);stroke-opacity:1;stroke-miterlimit:10;" d="M 61.789063 50.9375 C 61.789063 57.601563 51.789063 57.601563 51.789063 50.9375 C 51.789063 44.269531 61.789063 44.269531 61.789063 50.9375 "/>
<path style="fill:none;stroke-width:1;stroke-linecap:butt;stroke-linejoin:miter;stroke:rgb(0%,0%,0%);stroke-opacity:1;stroke-miterlimit:10;" d="M 59.101563 52.5625 C 59.101563 59.230469 49.101563 59.230469 49.101563 52.5625 C 49.101563 45.898438 59.101563 45.898438 59.101563 52.5625 "/>
<path style="fill:none;stroke-width:1;stroke-linecap:butt;stroke-linejoin:miter;stroke:rgb(0%,0%,0%);stroke-opacity:1;stroke-miterlimit:10;" d="M 52.449219 56.355469 C 52.449219 63.019531 42.449219 63.019531 42.449219 56.355469 C 42.449219 49.6875 52.449219 49.6875 52.449219 56.355469 "/>
<path style="fill:none;stroke-width:1;stroke-linecap:butt;stroke-linejoin:miter;stroke:rgb(0%,0%,0%);stroke-opacity:1;stroke-miterlimit:10;" d="M 89.121094 76.195313 C 89.121094 82.859375 79.121094 82.859375 79.121094 76.195313 C 79.121094 69.527344 89.121094 69.527344 89.121094 76.195313 "/>
<path style="fill:none;stroke-width:1;stroke-linecap:butt;stroke-linejoin:miter;stroke:rgb(0%,0%,0%);stroke-opacity:1;stroke-miterlimit:10;" d="M 90.359375 85.09375 C 90.359375 91.757813 80.359375 91.757813 80.359375 85.09375 C 80.359375 78.425781 90.359375 78.425781 90.359375 85.09375 "/>
<path style="fill:none;stroke-width:1;stroke-linecap:butt;stroke-linejoin:miter;stroke:rgb(0%,0%,0%);stroke-opacity:1;stroke-miterlimit:10;" d="M 93.925781 81.085938 C 93.925781 87.753906 83.925781 87.753906 83.925781 81.085938 C 83.925781 74.421875 93.925781 74.421875 93.925781 81.085938 "/>
<path style="fill:none;stroke-width:1;stroke-linecap:butt;stroke-linejoin:miter;stroke:rgb(0%,0%,0%);stroke-opacity:1;stroke-miterlimit:10;" d="M 86.777344 80.480469 C 86.777344 87.148438 76.777344 87.148438 76.777344 80.480469 C 76.777344 73.816406 86.777344 73.816406 86.777344 80.480469 "/>
<path style="fill:none;stroke-width:1;stroke-linecap:butt;stroke-linejoin:miter;stroke:rgb(0%,0%,0%);stroke-opacity:1;stroke-miterlimit:10;" d="M 77.503906 8.894531 C 77.503906 15.5625 67.503906 15.5625 67.503906 8.894531 C 67.503906 2.226563 77.503906 2.226563 77.503906 8.894531 "/>
<path style="fill:none;stroke-width:1;stroke-linecap:butt;stroke-linejoin:miter;stroke:rgb(0%,0%,0%);stroke-opacity:1;stroke-miterlimit:10;" d="M 46.796875 89.878906 C 46.796875 96.546875 36.796875 96.546875 36.796875 89.878906 C 36.796875 83.214844 46.796875 83.214844 46.796875 89.878906 "/>
<path style="fill:none;stroke-width:1;stroke-linecap:butt;stroke-linejoin:miter;stroke:rgb(0%,0%,0%);stroke-opacity:1;stroke-miterlimit:10;" d="M 64.347656 81.746094 C 64.347656 88.410156 54.347656 88.410156 54.347656 81.746094 C 54.347656 75.078125 64.347656 75.078125 64.347656 81.746094 "/>
<path style="fill:none;stroke-width:1;stroke-linecap:butt;stroke-linejoin:miter;stroke:rgb(0%,0%,0%);stroke-opacity:1;stroke-miterlimit:10;" d="M 81.292969 75.699219 C 81.292969 82.363281 71.292969 82.363281 71.292969 75.699219 C 71.292969 69.03125 81.292969 69.03125 81.292969 75.699219 "/>
<path style="fill:none;stroke-width:1;stroke-linecap:butt;stroke-linejoin:miter;stroke:rgb(0%,0%,0%);stroke-opacity:1;stroke-miterlimit:10;" d="M 68.210938 82.316406 C 68.210938 88.984375 58.210938 88.984375 58.210938 82.316406 C 58.210938 75.652344 68.210938 75.652344 68.210938 82.316406 "/>
<path style="fill:none;stroke-width:1;stroke-linecap:butt;stroke-linejoin:miter;stroke:rgb(0%,0%,0%);stroke-opacity:1;stroke-miterlimit:10;" d="M 89.121094 76.195313 C 89.121094 82.859375 79.121094 82.859375 79.121094 76.195313 C 79.121094 69.527344 89.121094 69.527344 89.121094 76.195313 "/>
<path style="fill:none;stroke-width:1;stroke-linecap:butt;stroke-linejoin:miter;stroke:rgb(0%,0%,0%);stroke-opacity:1;stroke-miterlimit:10;" d="M 85.152344 75.71875 C 85.152344 82.386719 75.152344 82.386719 75.152344 75.71875 C 75.152344 69.054688 85.152344 69.054688 85.152344 75.71875 "/>
<path style="fill:none;stroke-width:1;stroke-linecap:butt;stroke-linejoin:miter;stroke:rgb(0%,0%,0%);stroke-opacity:1;stroke-miterlimit:10;" d="M 72.835938 78.34375 C 72.835938 85.011719 62.835938 85.011719 62.835938 78.34375 C 62.835938 71.679688 72.835938 71.679688 72.835938 78.34375 "/>
<path style="fill:none;stroke-width:1;stroke-linecap:butt;stroke-linejoin:miter;stroke:rgb(0%,0%,0%);stroke-opacity:1;stroke-miterlimit:10;" d="M 73.816406 84.066406 C 73.816406 90.734375 63.816406 90.734375 63.816406 84.066406 C 63.816406 77.402344 73.816406 77.402344 73.816406 84.066406 "/>
<path style="fill:none;stroke-width:1;stroke-linecap:butt;stroke-linejoin:miter;stroke:rgb(0%,0%,0%);stroke-opacity:1;stroke-miterlimit:10;" d="M 105.203125 83.28125 C 105.203125 89.949219 95.203125 89.949219 95.203125 83.28125 C 95.203125 76.617188 105.203125 76.617188 105.203125 83.28125 "/>
<path style="fill:none;stroke-width:1;stroke-linecap:butt;stroke-linejoin:miter;stroke:rgb(0%,0%,0%);stroke-opacity:1;stroke-miterlimit:10;" d="M 95.101563 90.597656 C 95.101563 97.265625 85.101563 97.265625 85.101563 90.597656 C 85.101563 83.933594 95.101563 83.933594 95.101563 90.597656 "/>
<path style="fill:none;stroke-width:1;stroke-linecap:butt;stroke-linejoin:miter;stroke:rgb(0%,0%,0%);stroke-opacity:1;stroke-miterlimit:10;" d="M 96.730469 63.988281 C 96.730469 70.652344 86.730469 70.652344 86.730469 63.988281 C 86.730469 57.320313 96.730469 57.320313 96.730469 63.988281 "/>
<path style="fill:none;stroke-width:1;stroke-linecap:butt;stroke-linejoin:miter;stroke:rgb(0%,0%,0%);stroke-opacity:1;stroke-miterlimit:10;" d="M 94.523438 67.59375 C 94.523438 74.261719 84.523438 74.261719 84.523438 67.59375 C 84.523438 60.925781 94.523438 60.925781 94.523438 67.59375 "/>
<path style="fill:none;stroke-width:1;stroke-linecap:butt;stroke-linejoin:miter;stroke:rgb(0%,0%,0%);stroke-opacity:1;stroke-miterlimit:10;" d="M 92.410156 71.304688 C 92.410156 77.972656 82.410156 77.972656 82.410156 71.304688 C 82.410156 64.636719 92.410156 64.636719 92.410156 71.304688 "/>
<path style="fill:none;stroke-width:1;stroke-linecap:butt;stroke-linejoin:miter;stroke:rgb(0%,0%,0%);stroke-opacity:1;stroke-miterlimit:10;" d="M 98.699219 66.316406 C 98.699219 72.980469 88.699219 72.980469 88.699219 66.316406 C 88.699219 59.648438 98.699219 59.648438 98.699219 66.316406 "/>
<path style="fill:none;stroke-width:1;stroke-linecap:butt;stroke-linejoin:miter;stroke:rgb(0%,0%,0%);stroke-opacity:1;stroke-miterlimit:10;" d="M 94.054688 62.355469 C 94.054688 69.019531 84.054688 69.019531 84.054688 62.355469 C 84.054688 55.6875 94.054688 55.6875 94.054688 62.355469 "/>
<path style="fill:none;stroke-width:1;stroke-linecap:butt;stroke-linejoin:miter;stroke:rgb(0%,0%,0%);stroke-opacity:1;stroke-miterlimit:10;" d="M 94.054688 62.355469 C 94.054688 69.019531 84.054688 69.019531 84.054688 62.355469 C 84.054688 55.6875 94.054688 55.6875 94.054688 62.355469 "/>
<path style="fill:none;stroke-width:1;stroke-linecap:butt;stroke-linejoin:miter;stroke:rgb(0%,0%,0%);stroke-opacity:1;stroke-miterlimit:10;" d="M 94.523438 67.59375 C 94.523438 74.261719 84.523438 74.261719 84.523438 67.59375 C 84.523438 60.925781 94.523438 60.925781 94.523438 67.59375 "/>
<path style="fill:none;stroke-width:1;stroke-linecap:butt;stroke-linejoin:miter;stroke:rgb(0%,0%,0%);stroke-opacity:1;stroke-miterlimit:10;" d="M 105.148438 89.621094 C 105.148438 96.289063 95.148438 96.289063 95.148438 89.621094 C 95.148438 82.953125 105.148438 82.953125 105.148438 89.621094 "/>
<path style="fill:none;stroke-width:1;stroke-linecap:butt;stroke-linejoin:miter;stroke:rgb(0%,0%,0%);stroke-opacity:1;stroke-miterlimit:10;" d="M 102.46875 84.148438 C 102.46875 90.8125 92.46875 90.8125 92.46875 84.148438 C 92.46875 77.480469 102.46875 77.480469 102.46875 84.148438 "/>
<path style="fill:none;stroke-width:1;stroke-linecap:butt;stroke-linejoin:miter;stroke:rgb(0%,0%,0%);stroke-opacity:1;stroke-miterlimit:10;" d="M 96.746094 66.671875 C 96.746094 73.335938 86.746094 73.335938 86.746094 66.671875 C 86.746094 60.003906 96.746094 60.003906 96.746094 66.671875 "/>
<path style="fill:none;stroke-width:1;stroke-linecap:butt;stroke-linejoin:miter;stroke:rgb(0%,0%,0%);stroke-opacity:1;stroke-miterlimit:10;" d="M 160.269531 77.699219 C 160.269531 84.363281 150.269531 84.363281 150.269531 77.699219 C 150.269531 71.03125 160.269531 71.03125 160.269531 77.699219 "/>
<path style="fill:none;stroke-width:1;stroke-linecap:butt;stroke-linejoin:miter;stroke:rgb(0%,0%,0%);stroke-opacity:1;stroke-miterlimit:10;" d="M 150.011719 75.761719 C 150.011719 82.429688 140.011719 82.429688 140.011719 75.761719 C 140.011719 69.09375 150.011719 69.09375 150.011719 75.761719 "/>
<path style="fill:none;stroke-width:1;stroke-linecap:butt;stroke-linejoin:miter;stroke:rgb(0%,0%,0%);stroke-opacity:1;stroke-miterlimit:10;" d="M 148.488281 79.546875 C 148.488281 86.210938 138.488281 86.210938 138.488281 79.546875 C 138.488281 72.878906 148.488281 72.878906 148.488281 79.546875 "/>
<path style="fill:none;stroke-width:1;stroke-linecap:butt;stroke-linejoin:miter;stroke:rgb(0%,0%,0%);stroke-opacity:1;stroke-miterlimit:10;" d="M 133.546875 76.386719 C 133.546875 83.054688 123.546875 83.054688 123.546875 76.386719 C 123.546875 69.722656 133.546875 69.722656 133.546875 76.386719 "/>
<path style="fill:none;stroke-width:1;stroke-linecap:butt;stroke-linejoin:miter;stroke:rgb(0%,0%,0%);stroke-opacity:1;stroke-miterlimit:10;" d="M 160.171875 76.03125 C 160.171875 82.699219 150.171875 82.699219 150.171875 76.03125 C 150.171875 69.367188 160.171875 69.367188 160.171875 76.03125 "/>
<path style="fill:none;stroke-width:1;stroke-linecap:butt;stroke-linejoin:miter;stroke:rgb(0%,0%,0%);stroke-opacity:1;stroke-miterlimit:10;" d="M 141.488281 94.421875 C 141.488281 101.089844 131.488281 101.089844 131.488281 94.421875 C 131.488281 87.753906 141.488281 87.753906 141.488281 94.421875 "/>
<path style="fill:none;stroke-width:1;stroke-linecap:butt;stroke-linejoin:miter;stroke:rgb(0%,0%,0%);stroke-opacity:1;stroke-miterlimit:10;" d="M 160.269531 77.699219 C 160.269531 84.363281 150.269531 84.363281 150.269531 77.699219 C 150.269531 71.03125 160.269531 71.03125 160.269531 77.699219 "/>
<path style="fill:none;stroke-width:1;stroke-linecap:butt;stroke-linejoin:miter;stroke:rgb(0%,0%,0%);stroke-opacity:1;stroke-miterlimit:10;" d="M 137.199219 75.628906 C 137.199219 82.296875 127.199219 82.296875 127.199219 75.628906 C 127.199219 68.964844 137.199219 68.964844 137.199219 75.628906 "/>
<path style="fill:none;stroke-width:1;stroke-linecap:butt;stroke-linejoin:miter;stroke:rgb(0%,0%,0%);stroke-opacity:1;stroke-miterlimit:10;" d="M 142.710938 81.773438 C 142.710938 88.441406 132.710938 88.441406 132.710938 81.773438 C 132.710938 75.105469 142.710938 75.105469 142.710938 81.773438 "/>
<path style="fill:none;stroke-width:1;stroke-linecap:butt;stroke-linejoin:miter;stroke:rgb(0%,0%,0%);stroke-opacity:1;stroke-miterlimit:10;" d="M 133.933594 76.546875 C 133.933594 83.214844 123.933594 83.214844 123.933594 76.546875 C 123.933594 69.882813 133.933594 69.882813 133.933594 76.546875 "/>
</g>
</svg>
